<svg width="144" height="30" viewBox="0 0 144 30" fill="none" xmlns="http://www.w3.org/2000/svg">
<path d="M18.6667 6.31482V5.14815C18.6667 4.52931 18.4208 3.93582 17.9833 3.49824C17.5457 3.06065 16.9522 2.81482 16.3333 2.81482H11.6667C11.0478 2.81482 10.4543 3.06065 10.0168 3.49824C9.57917 3.93582 9.33334 4.52931 9.33334 5.14815V6.31482C8.09566 6.31482 6.90868 6.80648 6.03351 7.68165C5.15834 8.55682 4.66667 9.74381 4.66667 10.9815V23.8148C4.66667 24.4337 4.9125 25.0272 5.35009 25.4647C5.78767 25.9023 6.38117 26.1482 7 26.1482H21C21.6188 26.1482 22.2123 25.9023 22.6499 25.4647C23.0875 25.0272 23.3333 24.4337 23.3333 23.8148V10.9815C23.3333 9.74381 22.8417 8.55682 21.9665 7.68165C21.0913 6.80648 19.9043 6.31482 18.6667 6.31482ZM11.6667 5.14815H16.3333V6.31482H11.6667V5.14815ZM14 10.9815L16.3333 13.3148L14 15.6482L11.6667 13.3148L14 10.9815ZM21 23.8148H7V19.1482H9.33334V21.4815H10.5V19.1482H21V23.8148ZM21 17.9815H7V10.9815C7 10.3626 7.24584 9.76916 7.68342 9.33157C8.12101 8.89399 8.7145 8.64815 9.33334 8.64815H18.6667C19.2855 8.64815 19.879 8.89399 20.3166 9.33157C20.7542 9.76916 21 10.3626 21 10.9815V17.9815Z" fill="#0891B2"/>
<path d="M40.0859 16.4504C40.9156 16.7131 41.5654 17.1556 42.0356 17.7778C42.5057 18.3862 42.7407 19.1398 42.7407 20.0385C42.7407 21.3106 42.243 22.2923 41.2474 22.9837C40.2657 23.6612 38.8277 24 36.9333 24H29.4252V9.48148H36.5185C38.2884 9.48148 39.6435 9.82025 40.5837 10.4978C41.5378 11.1753 42.0148 12.0948 42.0148 13.2563C42.0148 13.9615 41.842 14.5906 41.4963 15.1437C41.1644 15.6968 40.6943 16.1323 40.0859 16.4504ZM32.7644 12.0119V15.4341H36.1037C36.9333 15.4341 37.5625 15.2889 37.9911 14.9985C38.4198 14.7081 38.6341 14.2795 38.6341 13.7126C38.6341 13.1457 38.4198 12.724 37.9911 12.4474C37.5625 12.157 36.9333 12.0119 36.1037 12.0119H32.7644ZM36.6844 21.4696C37.5694 21.4696 38.2331 21.3244 38.6756 21.0341C39.1319 20.7437 39.36 20.2943 39.36 19.6859C39.36 18.483 38.4681 17.8815 36.6844 17.8815H32.7644V21.4696H36.6844ZM45.2846 9.48148H48.6446V24H45.2846V9.48148ZM52.0901 9.48148H58.6857C60.262 9.48148 61.6516 9.78568 62.8546 10.3941C64.0713 10.9886 65.0116 11.8321 65.6753 12.9244C66.3528 14.0168 66.6916 15.2889 66.6916 16.7407C66.6916 18.1926 66.3528 19.4647 65.6753 20.557C65.0116 21.6494 64.0713 22.4998 62.8546 23.1081C61.6516 23.7027 60.262 24 58.6857 24H52.0901V9.48148ZM58.5197 21.2415C59.9716 21.2415 61.1262 20.8405 61.9834 20.0385C62.8546 19.2227 63.2901 18.1235 63.2901 16.7407C63.2901 15.358 62.8546 14.2657 61.9834 13.4637C61.1262 12.6479 59.9716 12.24 58.5197 12.24H55.4501V21.2415H58.5197ZM69.2255 9.48148H75.8211C77.3974 9.48148 78.787 9.78568 79.99 10.3941C81.2068 10.9886 82.147 11.8321 82.8107 12.9244C83.4882 14.0168 83.827 15.2889 83.827 16.7407C83.827 18.1926 83.4882 19.4647 82.8107 20.557C82.147 21.6494 81.2068 22.4998 79.99 23.1081C78.787 23.7027 77.3974 24 75.8211 24H69.2255V9.48148ZM75.6552 21.2415C77.107 21.2415 78.2616 20.8405 79.1189 20.0385C79.99 19.2227 80.4255 18.1235 80.4255 16.7407C80.4255 15.358 79.99 14.2657 79.1189 13.4637C78.2616 12.6479 77.107 12.24 75.6552 12.24H72.5855V21.2415H75.6552ZM95.7199 20.8889H88.9791L87.6932 24H84.2503L90.7214 9.48148H94.0399L100.532 24H97.0058L95.7199 20.8889ZM94.6621 18.3378L92.3599 12.7793L90.0577 18.3378H94.6621ZM102.038 9.48148H105.398V21.2622H112.678V24H102.038V9.48148ZM121.343 24.2489C119.836 24.2489 118.474 23.924 117.258 23.2741C116.055 22.6242 115.107 21.7323 114.416 20.5985C113.739 19.4509 113.4 18.1649 113.4 16.7407C113.4 15.3165 113.739 14.0375 114.416 12.9037C115.107 11.756 116.055 10.8573 117.258 10.2074C118.474 9.55753 119.836 9.23259 121.343 9.23259C122.851 9.23259 124.206 9.55753 125.409 10.2074C126.612 10.8573 127.559 11.756 128.25 12.9037C128.941 14.0375 129.287 15.3165 129.287 16.7407C129.287 18.1649 128.941 19.4509 128.25 20.5985C127.559 21.7323 126.612 22.6242 125.409 23.2741C124.206 23.924 122.851 24.2489 121.343 24.2489ZM121.343 21.3867C122.201 21.3867 122.975 21.1931 123.666 20.8059C124.358 20.4049 124.897 19.8519 125.284 19.1467C125.685 18.4415 125.886 17.6395 125.886 16.7407C125.886 15.842 125.685 15.04 125.284 14.3348C124.897 13.6296 124.358 13.0835 123.666 12.6963C122.975 12.2953 122.201 12.0948 121.343 12.0948C120.486 12.0948 119.712 12.2953 119.02 12.6963C118.329 13.0835 117.783 13.6296 117.382 14.3348C116.995 15.04 116.801 15.842 116.801 16.7407C116.801 17.6395 116.995 18.4415 117.382 19.1467C117.783 19.8519 118.329 20.4049 119.02 20.8059C119.712 21.1931 120.486 21.3867 121.343 21.3867ZM138.153 18.8563V24H134.793V18.8148L129.173 9.48148H132.74L136.619 15.9319L140.497 9.48148H143.795L138.153 18.8563Z" fill="#0891B2"/>
</svg>
