<svg width="144" height="29" viewBox="0 0 144 29" fill="none" xmlns="http://www.w3.org/2000/svg">
<path d="M18.6667 5.83334V4.66668C18.6667 4.04784 18.4209 3.45435 17.9833 3.01676C17.5457 2.57918 16.9522 2.33334 16.3334 2.33334H11.6667C11.0478 2.33334 10.4544 2.57918 10.0168 3.01676C9.57919 3.45435 9.33335 4.04784 9.33335 4.66668V5.83334C8.09568 5.83334 6.90869 6.32501 6.03352 7.20018C5.15835 8.07535 4.66669 9.26233 4.66669 10.5V23.3333C4.66669 23.9522 4.91252 24.5457 5.3501 24.9833C5.78769 25.4208 6.38118 25.6667 7.00002 25.6667H21C21.6189 25.6667 22.2123 25.4208 22.6499 24.9833C23.0875 24.5457 23.3334 23.9522 23.3334 23.3333V10.5C23.3334 9.26233 22.8417 8.07535 21.9665 7.20018C21.0913 6.32501 19.9044 5.83334 18.6667 5.83334ZM11.6667 4.66668H16.3334V5.83334H11.6667V4.66668ZM14 10.5L16.3334 12.8333L14 15.1667L11.6667 12.8333L14 10.5ZM21 23.3333H7.00002V18.6667H9.33335V21H10.5V18.6667H21V23.3333ZM21 17.5H7.00002V10.5C7.00002 9.88117 7.24585 9.28768 7.68344 8.85009C8.12102 8.41251 8.71451 8.16668 9.33335 8.16668H18.6667C19.2855 8.16668 19.879 8.41251 20.3166 8.85009C20.7542 9.28768 21 9.88117 21 10.5V17.5Z" fill="white"/>
<path d="M40.0859 15.9689C40.9155 16.2316 41.5654 16.6741 42.0355 17.2963C42.5056 17.9047 42.7407 18.6583 42.7407 19.557C42.7407 20.8291 42.2429 21.8109 41.2474 22.5022C40.2656 23.1798 38.8276 23.5185 36.9333 23.5185H29.4252V9.00001H36.5185C38.2884 9.00001 39.6434 9.33877 40.5837 10.0163C41.5377 10.6938 42.0148 11.6133 42.0148 12.7748C42.0148 13.48 41.8419 14.1091 41.4963 14.6622C41.1644 15.2153 40.6943 15.6509 40.0859 15.9689ZM32.7644 11.5304V14.9526H36.1037C36.9333 14.9526 37.5624 14.8074 37.9911 14.517C38.4197 14.2267 38.634 13.798 38.634 13.2311C38.634 12.6642 38.4197 12.2425 37.9911 11.9659C37.5624 11.6756 36.9333 11.5304 36.1037 11.5304H32.7644ZM36.6844 20.9882C37.5694 20.9882 38.2331 20.843 38.6755 20.5526C39.1318 20.2622 39.36 19.8128 39.36 19.2045C39.36 18.0015 38.4681 17.4 36.6844 17.4H32.7644V20.9882H36.6844ZM45.2845 9.00001H48.6445V23.5185H45.2845V9.00001ZM52.0901 9.00001H58.6856C60.2619 9.00001 61.6516 9.3042 62.8545 9.9126C64.0713 10.5072 65.0116 11.3506 65.6753 12.443C66.3528 13.5353 66.6916 14.8074 66.6916 16.2593C66.6916 17.7111 66.3528 18.9832 65.6753 20.0756C65.0116 21.1679 64.0713 22.0183 62.8545 22.6267C61.6516 23.2212 60.2619 23.5185 58.6856 23.5185H52.0901V9.00001ZM58.5197 20.76C59.9716 20.76 61.1261 20.359 61.9834 19.557C62.8545 18.7412 63.2901 17.642 63.2901 16.2593C63.2901 14.8765 62.8545 13.7842 61.9834 12.9822C61.1261 12.1664 59.9716 11.7585 58.5197 11.7585H55.4501V20.76H58.5197ZM69.2255 9.00001H75.8211C77.3974 9.00001 78.787 9.3042 79.9899 9.9126C81.2067 10.5072 82.147 11.3506 82.8107 12.443C83.4882 13.5353 83.827 14.8074 83.827 16.2593C83.827 17.7111 83.4882 18.9832 82.8107 20.0756C82.147 21.1679 81.2067 22.0183 79.9899 22.6267C78.787 23.2212 77.3974 23.5185 75.8211 23.5185H69.2255V9.00001ZM75.6551 20.76C77.107 20.76 78.2616 20.359 79.1188 19.557C79.9899 18.7412 80.4255 17.642 80.4255 16.2593C80.4255 14.8765 79.9899 13.7842 79.1188 12.9822C78.2616 12.1664 77.107 11.7585 75.6551 11.7585H72.5855V20.76H75.6551ZM95.7199 20.4074H88.9791L87.6932 23.5185H84.2502L90.7213 9.00001H94.0399L100.532 23.5185H97.0058L95.7199 20.4074ZM94.6621 17.8563L92.3599 12.2978L90.0576 17.8563H94.6621ZM102.038 9.00001H105.398V20.7807H112.678V23.5185H102.038V9.00001ZM121.343 23.7674C119.836 23.7674 118.474 23.4425 117.257 22.7926C116.055 22.1427 115.107 21.2509 114.416 20.117C113.738 18.9694 113.4 17.6835 113.4 16.2593C113.4 14.8351 113.738 13.5561 114.416 12.4222C115.107 11.2746 116.055 10.3758 117.257 9.72593C118.474 9.07606 119.836 8.75112 121.343 8.75112C122.851 8.75112 124.206 9.07606 125.409 9.72593C126.612 10.3758 127.559 11.2746 128.25 12.4222C128.941 13.5561 129.287 14.8351 129.287 16.2593C129.287 17.6835 128.941 18.9694 128.25 20.117C127.559 21.2509 126.612 22.1427 125.409 22.7926C124.206 23.4425 122.851 23.7674 121.343 23.7674ZM121.343 20.9052C122.201 20.9052 122.975 20.7116 123.666 20.3244C124.358 19.9235 124.897 19.3704 125.284 18.6652C125.685 17.96 125.886 17.158 125.886 16.2593C125.886 15.3605 125.685 14.5585 125.284 13.8533C124.897 13.1482 124.358 12.602 123.666 12.2148C122.975 11.8138 122.201 11.6133 121.343 11.6133C120.486 11.6133 119.712 11.8138 119.02 12.2148C118.329 12.602 117.783 13.1482 117.382 13.8533C116.995 14.5585 116.801 15.3605 116.801 16.2593C116.801 17.158 116.995 17.96 117.382 18.6652C117.783 19.3704 118.329 19.9235 119.02 20.3244C119.712 20.7116 120.486 20.9052 121.343 20.9052ZM138.153 18.3748V23.5185H134.793V18.3333L129.173 9.00001H132.74L136.618 15.4504L140.497 9.00001H143.795L138.153 18.3748Z" fill="white"/>
</svg>
